<?xml version="1.0" encoding="UTF-8" standalone="no"?>
<!-- Created with Inkscape (http://www.inkscape.org/) -->

<svg
   width="154.24486mm"
   height="106.30877mm"
   viewBox="0 0 154.24486 106.30877"
   version="1.1"
   id="svg1"
   xml:space="preserve"
   xmlns="http://www.w3.org/2000/svg"
   xmlns:svg="http://www.w3.org/2000/svg"><defs
     id="defs1" /><g
     id="layer3"
     style="display:none;opacity:1"
     transform="translate(-28.170646,-93.133343)"><path
       id="rect31"
       style="fill:#000000;stroke-width:0.260838"
       d="m 27.735258,147.44578 c -0.125485,0 -0.226343,0.10138 -0.226343,0.22686 v 0.30231 c 12.093271,2.36238 46.209209,-0.42648 50.181433,5.47253 4.645451,6.8805 -19.580565,17.4681 -24.649141,21.5067 l 0.239262,0.2067 c 5.61197,-2.60954 24.414542,-15.21241 36.403462,-13.2333 4.760032,0.83023 10.836409,2.47657 12.973369,8.61188 1.1061,3.17564 1.54004,20.01761 1.70532,30.62707 h 0.53692 c 0.16528,-10.60946 0.59923,-27.45143 1.70532,-30.62707 2.13696,-6.13531 8.21333,-7.78165 12.97337,-8.61188 11.86262,-1.95826 30.39638,10.35983 36.22208,13.14752 l 0.23203,-0.2682 c -5.45249,-4.14322 -29.05064,-14.56088 -24.46053,-21.35942 3.97221,-5.89898 38.08851,-3.11022 50.18195,-5.47253 v -0.30231 c 0,-0.12548 -0.10137,-0.22686 -0.22686,-0.22686 h -48.9815 a 30.850407,26.270929 0 0 1 -27.51408,14.38724 30.850407,26.270929 0 0 1 -27.513571,-14.38724 z m 154.018502,61.0986 -0.22582,1.06246 c 0.12506,-4.9e-4 0.22582,-0.10168 0.22582,-0.22686 z" /></g><g
     id="layer2"
     style="display:none;opacity:1"
     transform="translate(-28.170646,-93.133343)"><path
       id="rect8"
       style="display:inline;fill:#000000;stroke-width:0.214665"
       d="m 46.298466,114.45141 c -0.03256,-1.2e-4 -0.05311,0.002 -0.05943,0.006 l -5.17e-4,5.2e-4 -5.16e-4,5.2e-4 v 5.1e-4 h -5.17e-4 v 5.2e-4 5.2e-4 c -0.552231,0.009 -0.88005,0.046 -0.88005,0.046 l -12.199772,10.22366 v 16.16646 h -1.451591 v 1.68052 h 9.890352 v -1.68052 h -1.451591 v -15.68535 h 0.0088 c 0.181387,-3.40347 2.960411,-6.06901 6.327263,-6.06888 3.316227,8e-5 6.071424,2.58875 6.318477,5.93659 l 0.01757,-0.001 v 15.81867 h -1.267106 v 1.68052 h 1.267106 6.987171 1.635559 v -1.68052 h -1.635559 v -16.21813 c 0,0 -0.36707,-4.82462 -4.504635,-7.36906 -3.483188,-2.14203 -8.400013,-2.85537 -9.001001,-2.85771 z" /><path
       id="rect8-8"
       style="display:inline;opacity:1;fill:#000000;stroke-width:0.214665"
       d="m 69.633993,103.29809 c -0.01052,0.009 -6.400185,5.36322 -9.920325,8.31319 v 2.05413 c 0.549519,-0.4606 1.63467,-1.37005 2.933154,-2.45824 v 13.43949 16.24965 h -1.635559 v 1.68052 h 9.889836 v -1.68052 h -1.267106 v -15.76855 c 0.181387,-3.40347 2.969195,-6.06901 6.336047,-6.06888 3.316227,8e-5 6.071424,2.58875 6.318477,5.93659 l 0.01757,-10e-4 v 15.90187 h -1.451591 v 1.68052 h 1.451591 6.987171 1.451591 v -1.68052 h -1.451591 v -16.30133 c 0,0 -0.36707,-4.82462 -4.504635,-7.36906 -3.483188,-2.14203 -8.400013,-2.85537 -9.001001,-2.85771 -0.03256,-1.2e-4 -0.05311,0.002 -0.05943,0.006 l -5.17e-4,5.2e-4 -5.16e-4,5.2e-4 v 5.1e-4 h -5.17e-4 v 5.2e-4 5.2e-4 c -0.552231,0.009 -0.88005,0.046 -0.88005,0.046 l -5.212601,4.36821 z" /><path
       id="rect8-86"
       style="display:inline;fill:#000000;stroke-width:0.214665"
       d="m 90.164522,114.48759 v 1.68051 h 1.635559 v 16.21813 c 0,0 0.367065,4.82461 4.504635,7.36906 3.48319,2.14203 8.400014,2.85537 9.001004,2.85771 h 5.1e-4 c 0.0338,1.3e-4 0.0545,-0.002 0.06,-0.007 l 5.2e-4,-5.1e-4 v -5.2e-4 l 5.1e-4,-5.2e-4 v -5.1e-4 c 0.55223,-0.009 0.88005,-0.046 0.88005,-0.046 l 5.2126,-4.36821 v 7.72615 h -0.009 c -0.18139,3.40347 -2.96041,6.06901 -6.32726,6.06888 -3.12537,-8e-5 -5.752452,-2.2995 -6.251299,-5.3666 -1.830996,1.00968 -4.637924,2.55769 -7.07192,3.90002 v 0.4563 a 12.812668,11.778348 0 0 1 3.091285,-0.34778 12.812668,11.778348 0 0 1 11.170894,6.00997 c 0.12026,-0.009 0.185,-0.016 0.185,-0.016 l 12.19977,-10.22366 V 132.33456 116.1681 h 1.45159 v -1.68051 h -1.45159 -6.98717 -1.45159 v 1.68051 h 1.45159 v 15.68535 h -0.009 c -0.18139,3.40347 -2.96041,6.06901 -6.32726,6.06888 -3.31623,-8e-5 -6.071418,-2.58875 -6.318478,-5.93659 l -0.01757,0.001 V 116.1681 h 1.267618 v -1.68051 z" /><path
       id="rect8-8-5"
       style="display:inline;opacity:1;fill:#000000;stroke-width:0.214665"
       d="m 128.36736,103.29809 c -0.0105,0.009 -6.40019,5.36322 -9.92033,8.31319 v 2.05413 c 0.54952,-0.4606 1.63468,-1.37005 2.93316,-2.45824 v 13.43949 16.24965 h -1.63556 v 1.68052 h 9.88983 v -1.68052 h -1.2671 v -15.76855 c 0.18139,-3.40347 2.9692,-6.06901 6.33605,-6.06888 3.31623,8e-5 6.07142,2.58875 6.31847,5.93659 l 0.0176,-10e-4 v 15.90187 h -1.45159 v 1.68052 h 1.45159 6.98717 1.45159 v -1.68052 h -1.45159 v -16.30133 c 0,0 -0.36707,-4.82462 -4.50463,-7.36906 -3.48319,-2.14203 -8.40001,-2.85537 -9.001,-2.85771 -0.0326,-1.2e-4 -0.0531,0.002 -0.0594,0.006 l -5.2e-4,5.2e-4 -5.1e-4,5.2e-4 v 5.1e-4 h -5.2e-4 v 5.2e-4 5.2e-4 c -0.55223,0.009 -0.88005,0.046 -0.88005,0.046 l -5.2126,4.36821 z" /><path
       id="rect8-86-4"
       style="display:inline;opacity:1;fill:#000000;stroke-width:0.214665"
       d="m 148.83484,114.48759 v 1.68051 h 1.63556 v 16.21813 c 0,0 0.36707,4.82461 4.50464,7.36906 3.48319,2.14203 8.40001,2.85537 9.001,2.85771 0.0326,1.2e-4 0.0531,-0.002 0.0594,-0.006 l 5.1e-4,-5.2e-4 5.2e-4,-5.1e-4 5.2e-4,-5.2e-4 v -5.2e-4 -5.1e-4 c 0.55223,-0.009 0.88005,-0.046 0.88005,-0.046 l 12.19977,-10.22366 V 116.1681 h 1.45159 v -1.68051 h -1.45159 -6.98717 -1.45159 v 1.68051 h 1.45159 v 15.68535 h -0.009 c -0.18139,3.40347 -2.96041,6.06901 -6.32726,6.06888 -3.31623,-8e-5 -6.07142,-2.58875 -6.31848,-5.93659 l -0.0176,0.001 V 116.1681 h 1.26711 v -1.68051 z" /></g><g
     id="layer4"
     transform="translate(-28.170646,-93.133343)"><path
       id="rect31-1"
       style="display:inline;fill:#ffffff;stroke-width:0.260838"
       d="m 70.295723,93.133333 c -0.01052,0.009 -6.400184,5.36322 -9.920324,8.313187 v 2.05414 c 0.549519,-0.4606 1.63467,-1.37006 2.933154,-2.45825 v 13.43949 16.24965 h -1.207162 -0.428397 -1.207162 v -16.21813 c 0,0 -0.367069,-4.82462 -4.504634,-7.36906 -3.483188,-2.14203 -8.400013,-2.85537 -9.001001,-2.85771 -0.03256,-1.2e-4 -0.05311,0.002 -0.05943,0.006 l -5.17e-4,5.1e-4 -5.17e-4,5.2e-4 v 5.2e-4 h -5.16e-4 v 5.1e-4 5.2e-4 c -0.552231,0.009 -0.88005,0.046 -0.88005,0.046 l -12.19977,10.22387 v 16.16645 h -1.451591 v 1.68052 h 9.890352 v -1.68052 H 40.806567 V 115.0462 h 0.0088 c 0.181387,-3.40347 2.960411,-6.06901 6.327263,-6.06888 3.316227,8e-5 6.071424,2.58875 6.318477,5.93659 l 0.01757,-0.001 v 15.81867 h -1.267106 v 1.68052 h 1.267106 6.98717 1.207162 0.428397 9.461438 v -1.68052 h -1.267106 v -15.76854 c 0.181387,-3.40347 2.969196,-6.06901 6.336048,-6.06888 3.316227,8e-5 6.071424,2.58874 6.318477,5.93658 l 0.01757,-0.001 v 15.90187 h -1.451591 v 1.68052 h 1.451591 6.98717 1.451591 v -1.68052 h -1.451591 v -16.30133 c 0,0 -0.367069,-4.82462 -4.504634,-7.36906 -3.483188,-2.14203 -8.400013,-2.85536 -9.001001,-2.8577 -0.03256,-1.2e-4 -0.05311,0.002 -0.05943,0.006 l -5.17e-4,5.1e-4 -5.17e-4,5.2e-4 v 5.2e-4 h -5.16e-4 v 5.1e-4 5.2e-4 c -0.552231,0.009 -0.88005,0.046 -0.88005,0.046 l -5.212602,4.36821 z m 58.733367,0 c -0.0105,0.009 -6.40019,5.36322 -9.92033,8.313187 v 2.05414 c 0.54952,-0.4606 1.63468,-1.37006 2.93316,-2.45825 v 13.43949 16.24965 h -1.63556 v 1.68052 h 9.88983 v -1.68052 h -1.2671 v -15.76854 c 0.18139,-3.40347 2.96919,-6.06901 6.33604,-6.06888 3.31623,8e-5 6.07143,2.58874 6.31848,5.93658 l 0.0176,-10e-4 v 15.90187 h -1.45159 v 1.68052 h 1.45159 6.98717 1.45159 v -1.68052 h -1.45159 v -16.30133 c 0,0 -0.36707,-4.82462 -4.50463,-7.36906 -3.48319,-2.14203 -8.40001,-2.85536 -9.001,-2.8577 -0.0326,-1.2e-4 -0.0531,0.002 -0.0594,0.006 l -5.2e-4,5.1e-4 -5.1e-4,5.2e-4 v 5.2e-4 h -5.2e-4 v 5.1e-4 5.2e-4 c -0.55223,0.009 -0.88005,0.046 -0.88005,0.046 l -5.2126,4.36821 z M 90.826253,104.32283 v 1.68052 h 1.635559 v 16.21813 c 0,0 0.367065,4.82461 4.504635,7.36906 3.483193,2.14203 8.400013,2.85536 9.001003,2.8577 h 5.1e-4 c 0.0317,1.2e-4 0.0525,-0.002 0.0594,-0.007 l 5.2e-4,-5.2e-4 5.1e-4,-5.2e-4 v -5.1e-4 l 5.2e-4,-5.2e-4 v -5.2e-4 c 0.55223,-0.009 0.88005,-0.046 0.88005,-0.046 l 5.2126,-4.36821 v 7.72614 h -0.009 c -0.18139,3.40347 -2.96042,6.06901 -6.32727,6.06888 -3.12537,-8e-5 -5.75244,-2.29949 -6.251291,-5.36659 -1.830996,1.00968 -4.637924,2.55769 -7.07192,3.90002 v 0.4563 a 12.812668,11.778348 0 0 1 3.091284,-0.34778 12.812668,11.778348 0 0 1 11.170897,6.00997 c 0.12026,-0.009 0.185,-0.016 0.185,-0.016 l 12.19977,-10.22367 V 122.1698 106.00335 h 1.45159 v -1.68052 h -1.45159 -6.98717 -1.45159 v 1.68052 h 1.45159 v 15.68534 h -0.009 c -0.18139,3.40347 -2.96042,6.06901 -6.32727,6.06888 -3.31623,-8e-5 -6.071411,-2.58875 -6.318471,-5.93659 l -0.01757,10e-4 v -15.81867 h 1.267621 v -1.68052 z m 58.670317,0 v 1.68052 h 1.63556 v 16.21813 c 0,0 0.36707,4.82461 4.50464,7.36906 3.48319,2.14203 8.40001,2.85536 9.001,2.8577 0.0326,1.2e-4 0.0531,-0.002 0.0594,-0.006 l 5.2e-4,-5.1e-4 5.2e-4,-5.2e-4 5.1e-4,-5.2e-4 v -5.1e-4 -5.2e-4 c 0.55223,-0.009 0.88005,-0.046 0.88005,-0.046 l 12.19978,-10.22367 v -16.16645 h 1.45159 v -1.68052 h -1.45159 -6.98717 -1.4516 v 1.68052 h 1.4516 v 15.68534 h -0.009 c -0.18139,3.40347 -2.96041,6.06901 -6.32726,6.06888 -3.31623,-8e-5 -6.07142,-2.58875 -6.31848,-5.93659 l -0.0181,0.001 V 106.0035 h 1.26711 v -1.68052 z M 28.396989,137.28102 c -0.125485,0 -0.226343,0.10138 -0.226343,0.22686 v 0.30231 c 12.093271,2.36238 46.209209,-0.42648 50.181433,5.47253 4.645451,6.8805 -19.580565,17.4681 -24.649141,21.5067 l 0.239262,0.20671 c 5.61197,-2.60954 24.414542,-15.21241 36.403462,-13.2333 4.760032,0.83023 10.836408,2.47656 12.973368,8.61187 1.1061,3.17564 1.54004,20.01762 1.70532,30.62708 h 0.53692 c 0.16528,-10.60946 0.59923,-27.45144 1.70532,-30.62708 2.13696,-6.13531 8.21333,-7.78164 12.97337,-8.61187 11.86262,-1.95826 30.39638,10.35982 36.22208,13.14751 l 0.23203,-0.2682 c -5.45249,-4.14322 -29.05064,-14.56088 -24.46053,-21.35942 3.97221,-5.89898 38.08851,-3.11022 50.18195,-5.47253 v -0.30231 c 0,-0.12548 -0.10137,-0.22686 -0.22686,-0.22686 h -48.9815 a 30.850407,26.270929 0 0 1 -27.51409,14.38724 30.850407,26.270929 0 0 1 -27.51356,-14.38724 z m 154.018501,61.0986 -0.22582,1.06247 c 0.12506,-4.9e-4 0.22582,-0.10168 0.22582,-0.22686 z" /></g></svg>
